<svg id="レイヤー_1" data-name="レイヤー 1" xmlns="http://www.w3.org/2000/svg" viewBox="0 0 453.54 85.04"><defs><style>.cls-1{fill:#231815;}</style></defs><path class="cls-1" d="M121.54,40.54H139.3V24.43h6.22V65.61H139.3V46.38H121.54V65.61h-6.22V24.43h6.22Z"/><path class="cls-1" d="M171.52,39.63h6v26h-6V62.89a11.53,11.53,0,0,1-16.88-.43,14.49,14.49,0,0,1-3.5-9.92,14,14,0,0,1,3.5-9.74,11.27,11.27,0,0,1,8.75-3.89,11,11,0,0,1,8.13,3.73ZM157.28,52.54a9,9,0,0,0,2,6.08A6.55,6.55,0,0,0,164.45,61a6.88,6.88,0,0,0,5.39-2.29,8.87,8.87,0,0,0,2-6,8.89,8.89,0,0,0-2-6,6.81,6.81,0,0,0-5.33-2.32,6.66,6.66,0,0,0-5.18,2.35A8.65,8.65,0,0,0,157.28,52.54Z"/><path class="cls-1" d="M183.06,39.63h6V42A11.21,11.21,0,0,1,192,39.58a6.64,6.64,0,0,1,3.09-.67,9.58,9.58,0,0,1,5,1.55L197.3,46A5.73,5.73,0,0,0,194,44.72q-4.91,0-4.9,7.42V65.61h-6Z"/><path class="cls-1" d="M208.5,39.63V54.54c0,4.3,1.69,6.45,5.09,6.45s5.09-2.15,5.09-6.45V39.63h6v15a16.62,16.62,0,0,1-.78,5.39,9.08,9.08,0,0,1-2.58,3.65,12.62,12.62,0,0,1-15.45,0,9.25,9.25,0,0,1-2.64-3.65,14.86,14.86,0,0,1-.74-5.39v-15Z"/><path class="cls-1" d="M235.7,45.23V65.61h-6V45.23h-2.56v-5.6h2.56V30.11h6v9.52h4.67v5.6Z"/><path class="cls-1" d="M240.37,52.43a12.91,12.91,0,0,1,4-9.57,14.22,14.22,0,0,1,19.69,0,13.26,13.26,0,0,1,4,9.76,13.17,13.17,0,0,1-4,9.79,13.74,13.74,0,0,1-10,3.92,13.2,13.2,0,0,1-9.79-4A13.45,13.45,0,0,1,240.37,52.43Zm6.13.11a8.75,8.75,0,0,0,2.08,6.16,8.09,8.09,0,0,0,11.25,0,8.54,8.54,0,0,0,2.11-6.06,8.51,8.51,0,0,0-2.11-6.05,8,8,0,0,0-11.2,0A8.35,8.35,0,0,0,246.5,52.54Z"/><path class="cls-1" d="M290,40.86l16-16.43h8.29L295.68,43.07,314.4,65.61h-8.32L291.25,47.28,290,48.56v17h-6.21V24.43H290Z"/><path class="cls-1" d="M334.78,39.63h6v26h-6V62.89a11.55,11.55,0,0,1-16.89-.43,14.48,14.48,0,0,1-3.49-9.92,14,14,0,0,1,3.49-9.74,11.29,11.29,0,0,1,8.75-3.89,11.05,11.05,0,0,1,8.14,3.73ZM320.53,52.54a9.07,9.07,0,0,0,2,6.08A6.57,6.57,0,0,0,327.71,61a6.89,6.89,0,0,0,5.39-2.29,8.87,8.87,0,0,0,2-6,8.89,8.89,0,0,0-2-6,6.82,6.82,0,0,0-5.34-2.32,6.65,6.65,0,0,0-5.17,2.35A8.65,8.65,0,0,0,320.53,52.54Z"/><path class="cls-1" d="M346.14,39.63h6V42a12.36,12.36,0,0,1,3-2.45,7.09,7.09,0,0,1,3.28-.67,8,8,0,0,1,7,3.84A9,9,0,0,1,373,38.91q8.78,0,8.77,10.64V65.61h-6V51.18a11.19,11.19,0,0,0-.9-5.28,3.31,3.31,0,0,0-3.07-1.58,3.92,3.92,0,0,0-3.61,1.87q-1.14,1.86-1.14,6V65.61h-6V51.26q0-6.94-4-6.94a4,4,0,0,0-3.69,1.9q-1.16,1.89-1.16,6V65.61h-6Z"/><path class="cls-1" d="M385.8,28.83A3.93,3.93,0,0,1,389.69,25a3.77,3.77,0,0,1,2.78,1.15,3.68,3.68,0,0,1,1.14,2.74,3.8,3.8,0,0,1-1.14,2.78,3.72,3.72,0,0,1-2.75,1.14,3.91,3.91,0,0,1-3.92-3.94Zm6.91,10.8v26h-6v-26Z"/><path class="cls-1" d="M410.7,52.43a12.92,12.92,0,0,1,4-9.57,14.21,14.21,0,0,1,19.68,0,13.22,13.22,0,0,1,4,9.76,13.16,13.16,0,0,1-4,9.79,13.75,13.75,0,0,1-9.95,3.92,13.2,13.2,0,0,1-9.79-4A13.46,13.46,0,0,1,410.7,52.43Zm6.14.11a8.75,8.75,0,0,0,2.08,6.16,8.09,8.09,0,0,0,11.25,0,8.54,8.54,0,0,0,2.11-6.06,8.51,8.51,0,0,0-2.11-6.05,8,8,0,0,0-11.2,0A8.35,8.35,0,0,0,416.84,52.54Z"/><path class="cls-1" d="M399.4,28.83A3.93,3.93,0,0,1,403.3,25a3.77,3.77,0,0,1,2.77,1.15,3.69,3.69,0,0,1,1.15,2.74,3.81,3.81,0,0,1-1.15,2.78,3.71,3.71,0,0,1-2.75,1.14,3.91,3.91,0,0,1-3.92-3.94Z"/><path class="cls-1" d="M400.31,71.66v-32h6v32a9.3,9.3,0,0,1-2.85,6.92,9.73,9.73,0,0,1-7,2.77,9.32,9.32,0,0,1-6.92-2.83,9.51,9.51,0,0,1-2.79-7l6,.08a4.31,4.31,0,0,0,1,3,4,4,0,0,0,5.54,0A4.23,4.23,0,0,0,400.31,71.66Z"/><path class="cls-1" d="M20.56,9.69A5.07,5.07,0,0,1,22.12,6a5.3,5.3,0,0,1,7.53,0,5,5,0,0,1,1.57,3.75,5.12,5.12,0,0,1-1.57,3.78,5,5,0,0,1-3.74,1.56,5.33,5.33,0,0,1-5.35-5.38ZM30,24.43V59.87H21.79V24.43Z"/><path class="cls-1" d="M39.12,9.69A5.07,5.07,0,0,1,40.68,6a5.3,5.3,0,0,1,7.53,0,5,5,0,0,1,1.57,3.75,5.12,5.12,0,0,1-1.57,3.78,5,5,0,0,1-3.75,1.56,5.15,5.15,0,0,1-3.78-1.56A5.21,5.21,0,0,1,39.12,9.69Z"/><path class="cls-1" d="M40.35,68.12V24.43h8.19V68.12a12.71,12.71,0,0,1-3.89,9.45,13.3,13.3,0,0,1-9.6,3.78,12.72,12.72,0,0,1-9.45-3.86,13,13,0,0,1-3.81-9.57L30,68a5.88,5.88,0,0,0,1.4,4.14,4.89,4.89,0,0,0,3.78,1.54,5,5,0,0,0,3.78-1.52A5.76,5.76,0,0,0,40.35,68.12Z"/></svg>