<svg id="レイヤー_1" data-name="レイヤー 1" xmlns="http://www.w3.org/2000/svg" viewBox="0 0 566.93 85.04"><defs><style>.cls-1{fill:#231815;}</style></defs><path class="cls-1" d="M116.14,25.66h24.23v-22h8.48V59.87h-8.48V33.63H116.14V59.87h-8.48V3.69h8.48Z"/><path class="cls-1" d="M184.33,24.43h8.22V59.87h-8.22V56.16q-5.06,4.73-10.88,4.73a15.68,15.68,0,0,1-12.16-5.32A19.77,19.77,0,0,1,156.53,42a19.18,19.18,0,0,1,4.76-13.28,15.36,15.36,0,0,1,11.94-5.32q6.18,0,11.1,5.1ZM164.9,42a12.33,12.33,0,0,0,2.73,8.29,8.92,8.92,0,0,0,7.05,3.24A9.4,9.4,0,0,0,182,50.44a12.15,12.15,0,0,0,2.8-8.22A12.15,12.15,0,0,0,182,34a9.28,9.28,0,0,0-7.28-3.17A9.05,9.05,0,0,0,167.7,34,11.8,11.8,0,0,0,164.9,42Z"/><path class="cls-1" d="M200.07,24.43h8.18v3.16a16,16,0,0,1,4-3.24,9.22,9.22,0,0,1,4.22-.91,13.25,13.25,0,0,1,6.76,2.11l-3.74,7.5A7.8,7.8,0,0,0,215,31.38q-6.7,0-6.7,10.11V59.87h-8.18Z"/><path class="cls-1" d="M234.78,24.43V44.77q0,8.81,6.95,8.8t7-8.8V24.43h8.18V45a22.92,22.92,0,0,1-1.05,7.35,12.34,12.34,0,0,1-3.53,5,17.18,17.18,0,0,1-21.07,0,12.43,12.43,0,0,1-3.6-5,20.25,20.25,0,0,1-1-7.35V24.43Z"/><path class="cls-1" d="M271.89,32.07v27.8H263.7V32.07h-3.49V24.43h3.49v-13h8.19v13h6.37v7.64Z"/><path class="cls-1" d="M278.26,41.89a17.61,17.61,0,0,1,5.49-13.06,19.36,19.36,0,0,1,26.85,0,18,18,0,0,1,5.46,13.31,18,18,0,0,1-5.49,13.36A18.81,18.81,0,0,1,297,60.89a18,18,0,0,1-13.36-5.46A18.35,18.35,0,0,1,278.26,41.89Zm8.36.15q0,5.31,2.84,8.4a11,11,0,0,0,15.36,0,11.64,11.64,0,0,0,2.87-8.26A11.64,11.64,0,0,0,304.82,34a10,10,0,0,0-7.68-3.13,9.88,9.88,0,0,0-7.6,3.13A11.41,11.41,0,0,0,286.62,42Z"/><path class="cls-1" d="M345.93,26.1,367.8,3.69h11.32l-25.4,25.43,25.54,30.75H367.91l-20.23-25-1.75,1.75V59.87h-8.48V3.69h8.48Z"/><path class="cls-1" d="M407.07,24.43h8.22V59.87h-8.22V56.16q-5.07,4.73-10.88,4.73A15.66,15.66,0,0,1,384,55.57,19.72,19.72,0,0,1,379.26,42,19.14,19.14,0,0,1,384,28.76,15.36,15.36,0,0,1,396,23.44q6.18,0,11.1,5.1ZM387.63,42a12.33,12.33,0,0,0,2.73,8.29,8.94,8.94,0,0,0,7.06,3.24,9.39,9.39,0,0,0,7.35-3.13,12.11,12.11,0,0,0,2.8-8.22,12.11,12.11,0,0,0-2.8-8.22,9.26,9.26,0,0,0-7.27-3.17,9.05,9.05,0,0,0-7.06,3.2A11.81,11.81,0,0,0,387.63,42Z"/><path class="cls-1" d="M422.57,24.43h8.18V27.7a17.5,17.5,0,0,1,4-3.35,9.89,9.89,0,0,1,4.48-.91,10.88,10.88,0,0,1,9.5,5.24,12.29,12.29,0,0,1,10.44-5.24q12,0,12,14.52V59.87H463V40.18c0-3.39-.41-5.8-1.24-7.2a4.48,4.48,0,0,0-4.18-2.15,5.33,5.33,0,0,0-4.93,2.55c-1,1.7-1.55,4.43-1.55,8.19v18.3h-8.23V40.29q0-9.47-5.45-9.46a5.46,5.46,0,0,0-5,2.58c-1.06,1.73-1.59,4.44-1.59,8.16v18.3h-8.18Z"/><path class="cls-1" d="M476.68,9.69A5.07,5.07,0,0,1,478.24,6a5.3,5.3,0,0,1,7.53,0,5,5,0,0,1,1.57,3.75,5.12,5.12,0,0,1-1.57,3.78A5,5,0,0,1,482,15.07a5.33,5.33,0,0,1-5.35-5.38Zm9.42,14.74V59.87h-8.19V24.43Z"/><path class="cls-1" d="M510.66,41.89a17.61,17.61,0,0,1,5.49-13.06,19.36,19.36,0,0,1,26.85,0,18,18,0,0,1,5.46,13.31A18,18,0,0,1,543,55.54a18.81,18.81,0,0,1-13.57,5.35A18,18,0,0,1,516,55.43,18.35,18.35,0,0,1,510.66,41.89ZM519,42q0,5.31,2.84,8.4a11,11,0,0,0,15.36,0,11.64,11.64,0,0,0,2.87-8.26A11.64,11.64,0,0,0,537.22,34a10,10,0,0,0-7.68-3.13,9.88,9.88,0,0,0-7.6,3.13A11.41,11.41,0,0,0,519,42Z"/><path class="cls-1" d="M495.24,9.69A5.07,5.07,0,0,1,496.8,6a5.3,5.3,0,0,1,7.53,0,5,5,0,0,1,1.57,3.75,5.12,5.12,0,0,1-1.57,3.78,5,5,0,0,1-3.75,1.56,5.15,5.15,0,0,1-3.78-1.56A5.21,5.21,0,0,1,495.24,9.69Z"/><path class="cls-1" d="M496.47,68.12V24.43h8.19V68.12a12.71,12.71,0,0,1-3.89,9.45,13.3,13.3,0,0,1-9.6,3.78,12.72,12.72,0,0,1-9.45-3.86,13,13,0,0,1-3.81-9.57l8.19.11a5.88,5.88,0,0,0,1.4,4.14,4.89,4.89,0,0,0,3.78,1.54,5,5,0,0,0,3.78-1.52A5.76,5.76,0,0,0,496.47,68.12Z"/><path class="cls-1" d="M18.47,9.69A5.07,5.07,0,0,1,20,6a5.3,5.3,0,0,1,7.53,0,5,5,0,0,1,1.57,3.75,5.12,5.12,0,0,1-1.57,3.78,5,5,0,0,1-3.74,1.56A5.17,5.17,0,0,1,20,13.51,5.21,5.21,0,0,1,18.47,9.69Zm9.42,14.74V59.87H19.7V24.43Z"/><path class="cls-1" d="M37,9.69A5.08,5.08,0,0,1,38.59,6a5.3,5.3,0,0,1,7.53,0,5.06,5.06,0,0,1,1.57,3.75,5.16,5.16,0,0,1-1.57,3.78,5,5,0,0,1-3.75,1.56,5.15,5.15,0,0,1-3.78-1.56A5.21,5.21,0,0,1,37,9.69Z"/><path class="cls-1" d="M38.26,68.12V24.43h8.19V68.12a12.71,12.71,0,0,1-3.89,9.45A13.3,13.3,0,0,1,33,81.35a12.72,12.72,0,0,1-9.45-3.86,13,13,0,0,1-3.81-9.57l8.19.11a5.88,5.88,0,0,0,1.4,4.14,4.89,4.89,0,0,0,3.78,1.54,5,5,0,0,0,3.78-1.52A5.76,5.76,0,0,0,38.26,68.12Z"/></svg>